<?xml version="1.0" standalone="no"?>
<!DOCTYPE svg PUBLIC "-//W3C//DTD SVG 20010904//EN"
 "http://www.w3.org/TR/2001/REC-SVG-20010904/DTD/svg10.dtd">
<svg version="1.0" xmlns="http://www.w3.org/2000/svg"
 width="16.000000pt" height="16.000000pt" viewBox="0 0 16.000000 16.000000"
 preserveAspectRatio="xMidYMid meet">
<metadata>
Created by potrace 1.11, written by Peter Selinger 2001-2013
</metadata>
<g transform="translate(0.000000,16.000000) scale(0.006154,-0.006154)"
fill="#000000" stroke="none">
<path d="M1645 2586 c-129 -40 -266 -144 -385 -293 -32 -41 -50 -53 -50 -34 0
22 -53 125 -58 111 -2 -8 -19 -53 -37 -100 -76 -196 -125 -330 -125 -339 0 -6
92 35 205 92 113 56 205 104 205 107 0 3 -32 24 -71 46 l-71 41 85 79 c170
158 317 192 390 90 83 -118 62 -553 -49 -1001 -69 -275 -145 -431 -320 -655
-198 -253 -414 -434 -549 -459 -104 -20 -182 73 -200 240 -6 54 -6 241 0 289
2 19 7 56 9 81 3 25 7 59 11 75 5 28 5 28 -5 4 -10 -21 -30 -100 -46 -175 -39
-183 -52 -372 -35 -486 13 -82 55 -179 95 -222 50 -51 103 -71 191 -71 65 0
91 5 137 26 154 71 364 242 506 412 31 38 62 74 67 80 6 6 28 36 50 66 243
331 391 732 449 1215 15 118 15 396 1 460 -21 99 -28 124 -44 160 -31 68 -77
121 -125 145 -55 26 -171 34 -231 16z"/>
<path d="M1068 1835 c-2 -2 -21 -5 -44 -8 -241 -33 -423 -279 -400 -541 12
-149 47 -238 130 -334 40 -46 136 -97 225 -119 54 -13 276 -11 353 4 l76 15
50 81 c27 45 55 93 62 107 14 27 24 90 14 90 -3 0 -33 -15 -67 -34 -160 -89
-360 -98 -460 -22 -42 32 -83 99 -91 149 l-5 27 320 0 c248 0 319 3 320 13 23
283 -94 501 -299 557 -39 10 -177 22 -184 15z m114 -198 c49 -27 82 -84 90
-154 l5 -40 -178 -1 c-188 -1 -189 -1 -179 43 1 6 3 18 5 27 6 30 36 86 55
103 46 42 149 53 202 22z"/>
</g>
</svg>
